<svg width="110" height="96" viewBox="0 0 110 96" fill="none" xmlns="http://www.w3.org/2000/svg">
<path id="quote-left-solid" d="M99.2137 47.9997H82.2647V34.4593C82.2647 26.991 88.3451 20.919 95.8239 20.919H97.5188C100.337 20.919 102.603 18.6552 102.603 15.8413V5.68604C102.603 2.87218 100.337 0.608398 97.5188 0.608398H95.8239C77.0952 0.608398 61.9259 15.7567 61.9259 34.4593V85.2357C61.9259 90.8423 66.4809 95.391 72.0953 95.391H99.2137C104.828 95.391 109.383 90.8423 109.383 85.2357V58.155C109.383 52.5484 104.828 47.9997 99.2137 47.9997ZM38.1972 47.9997H21.2482V34.4593C21.2482 26.991 27.3287 20.919 34.8074 20.919H36.5023C39.3201 20.919 41.587 18.6552 41.587 15.8413V5.68604C41.587 2.87218 39.3201 0.608398 36.5023 0.608398H34.8074C16.0788 0.608398 0.909424 15.7567 0.909424 34.4593V85.2357C0.909424 90.8423 5.46447 95.391 11.0788 95.391H38.1972C43.8116 95.391 48.3666 90.8423 48.3666 85.2357V58.155C48.3666 52.5484 43.8116 47.9997 38.1972 47.9997Z" fill="white"/>
</svg>
