<svg width="112" height="112" viewBox="0 0 112 112" fill="none" xmlns="http://www.w3.org/2000/svg">
<circle cx="56" cy="56" r="56" fill="#FFD400"/>
<path d="M35.2452 80.1932C31.2821 80.179 27.8588 79.2628 24.9753 77.4446C22.0918 75.6264 19.8688 73.0057 18.3063 69.5824C16.7438 66.1591 15.9696 62.054 15.9838 57.267C15.998 52.4659 16.7793 48.3892 18.3276 45.0369C19.8901 41.6847 22.106 39.1349 24.9753 37.3878C27.8588 35.6406 31.2821 34.767 35.2452 34.767C39.2083 34.767 42.6316 35.6477 45.5151 37.4091C48.3986 39.1562 50.6216 41.706 52.1841 45.0582C53.7466 48.4105 54.5208 52.4801 54.5066 57.267C54.5066 62.0824 53.7253 66.2017 52.1628 69.625C50.6003 73.0483 48.3773 75.669 45.4938 77.4872C42.6245 79.2912 39.2083 80.1932 35.2452 80.1932ZM35.2452 70.5625C37.2907 70.5625 38.9668 69.4972 40.2736 67.3665C41.5946 65.2216 42.248 61.8551 42.2338 57.267C42.2338 54.2699 41.9355 51.8196 41.339 49.9162C40.7424 48.0128 39.9185 46.6065 38.8674 45.6974C37.8162 44.7741 36.6088 44.3125 35.2452 44.3125C33.1998 44.3125 31.5307 45.3494 30.2381 47.4233C28.9455 49.4972 28.285 52.7784 28.2566 57.267C28.2424 60.321 28.5336 62.8352 29.1301 64.8097C29.7267 66.7699 30.5506 68.2188 31.6017 69.1562C32.6671 70.0938 33.8816 70.5625 35.2452 70.5625ZM77.1131 79.5966C73.6756 79.5966 70.6216 79.0071 67.9512 77.8281C65.2949 76.6349 63.2069 74.9943 61.687 72.9062C60.1671 70.8182 59.4 68.4176 59.3858 65.7045H71.3176C71.3319 66.5426 71.5875 67.2955 72.0847 67.9631C72.5961 68.6165 73.2921 69.1278 74.1728 69.4972C75.0534 69.8665 76.062 70.0511 77.1983 70.0511C78.2921 70.0511 79.258 69.8594 80.0961 69.4759C80.9341 69.0781 81.5875 68.5312 82.0563 67.8352C82.525 67.1392 82.7523 66.3437 82.7381 65.4489C82.7523 64.5682 82.4824 63.7869 81.9284 63.1051C81.3887 62.4233 80.6287 61.8906 79.6486 61.5071C78.6685 61.1236 77.5392 60.9318 76.2608 60.9318H71.829V52.75H76.2608C77.4398 52.75 78.4767 52.5582 79.3716 52.1747C80.2807 51.7912 80.9838 51.2585 81.481 50.5767C81.9924 49.8949 82.2409 49.1136 82.2267 48.233C82.2409 47.3807 82.035 46.6278 81.6088 45.9744C81.1827 45.321 80.5861 44.8097 79.8191 44.4403C79.0662 44.071 78.1926 43.8864 77.1983 43.8864C76.1188 43.8864 75.1529 44.0781 74.3006 44.4616C73.4625 44.8452 72.802 45.3778 72.3191 46.0597C71.8361 46.7415 71.5875 47.5227 71.5733 48.4034H60.2381C60.2523 45.733 60.9838 43.375 62.4327 41.3295C63.8958 39.2841 65.8986 37.679 68.4412 36.5142C70.9838 35.3494 73.9029 34.767 77.1983 34.767C80.4228 34.767 83.2708 35.3139 85.7424 36.4077C88.2282 37.5014 90.1671 39.0071 91.5591 40.9247C92.9654 42.8281 93.6614 45.0085 93.6472 47.4659C93.6756 49.9091 92.8375 51.9119 91.133 53.4744C89.4426 55.0369 87.2978 55.9602 84.6983 56.2443V56.5852C88.2211 56.9687 90.8702 58.0483 92.6458 59.8239C94.4213 61.5852 95.2949 63.8011 95.2665 66.4716C95.2807 69.0284 94.5137 71.294 92.9654 73.2685C91.4313 75.2429 89.2935 76.7912 86.552 77.9134C83.8248 79.0355 80.6784 79.5966 77.1131 79.5966Z" fill="white"/>
</svg>
