<svg width="57" height="46" viewBox="0 0 57 46" fill="none" xmlns="http://www.w3.org/2000/svg">
<path d="M32.7212 0.625C35.0063 0.625 36.9399 2.55859 36.9399 4.84375V9.0625H41.3345C42.8286 9.0625 44.2349 9.67773 45.3774 10.7324L52.145 17.5C53.1997 18.5547 53.8149 20.0488 53.8149 21.543V31.5625C55.3091 31.5625 56.6274 32.8809 56.6274 34.375C56.6274 35.957 55.3091 37.1875 53.8149 37.1875H51.0024C51.0024 41.8457 47.2231 45.625 42.5649 45.625C37.8188 45.625 34.1274 41.8457 34.1274 37.1875H22.8774C22.8774 41.8457 19.0981 45.625 14.4399 45.625C9.69385 45.625 6.00244 41.8457 6.00244 37.1875H4.59619C2.22314 37.1875 0.377441 35.3418 0.377441 32.9688V4.84375C0.377441 2.55859 2.22314 0.625 4.59619 0.625H32.7212ZM36.9399 14.6875V23.125H48.1899V21.543L41.3345 14.6875H36.9399ZM14.4399 32.9688C12.0669 32.9688 10.2212 34.9023 10.2212 37.1875C10.2212 39.5605 12.0669 41.4062 14.4399 41.4062C16.7251 41.4062 18.6587 39.5605 18.6587 37.1875C18.6587 34.9023 16.7251 32.9688 14.4399 32.9688ZM42.5649 41.4062C44.8501 41.4062 46.7837 39.5605 46.7837 37.1875C46.7837 34.9023 44.8501 32.9688 42.5649 32.9688C40.1919 32.9688 38.3462 34.9023 38.3462 37.1875C38.3462 39.5605 40.1919 41.4062 42.5649 41.4062Z" fill="#183059"/>
</svg>
