<svg width="44" height="46" viewBox="0 0 44 46" fill="none" xmlns="http://www.w3.org/2000/svg">
<path d="M43.3389 15.3027C43.6904 16.0938 43.4268 16.8848 42.8115 17.5L39.0322 20.9277C39.1201 21.6309 39.208 22.4219 39.208 23.125C39.208 23.916 39.1201 24.707 39.0322 25.4102L42.8115 28.8379C43.4268 29.4531 43.6904 30.2441 43.3389 31.0352C42.9873 32.0898 42.5479 33.0566 42.0205 34.0234L41.5811 34.7266C40.9658 35.6934 40.3506 36.6602 39.6475 37.5391C39.1201 38.1543 38.2412 38.3301 37.4502 38.0664L32.6162 36.5723C31.3857 37.4512 30.0674 38.1543 28.749 38.7695L27.6064 43.7793C27.4307 44.5703 26.8154 45.1855 26.0244 45.3613C24.7939 45.5371 23.5635 45.625 22.2451 45.625C21.0146 45.625 19.7842 45.5371 18.5537 45.3613C17.7627 45.1855 17.1475 44.5703 16.9717 43.7793L15.8291 38.7695C14.5107 38.1543 13.1924 37.4512 11.9619 36.5723L7.12793 38.0664C6.33691 38.3301 5.45801 38.1543 4.93066 37.5391C4.22754 36.6602 3.6123 35.6934 2.99707 34.7266L2.55762 34.0234C2.03027 33.0566 1.59082 32.0898 1.23926 31.0352C0.887695 30.2441 1.15137 29.4531 1.7666 28.8379L5.5459 25.4102C5.45801 24.707 5.45801 23.916 5.45801 23.125C5.45801 22.4219 5.45801 21.6309 5.5459 20.9277L1.7666 17.5C1.15137 16.8848 0.887695 16.0938 1.23926 15.3027C1.59082 14.248 2.03027 13.2812 2.55762 12.3145L2.99707 11.6113C3.6123 10.6445 4.22754 9.67773 4.93066 8.79883C5.45801 8.18359 6.33691 8.00781 7.12793 8.27148L11.9619 9.76562C13.1924 8.88672 14.5107 8.0957 15.8291 7.56836L16.9717 2.55859C17.1475 1.76758 17.7627 1.15234 18.5537 0.976562C19.7842 0.800781 21.0146 0.625 22.333 0.625C23.5635 0.625 24.7939 0.800781 26.0244 0.976562C26.8154 1.15234 27.4307 1.76758 27.6064 2.55859L28.749 7.56836C30.0674 8.0957 31.3857 8.88672 32.6162 9.76562L37.4502 8.27148C38.2412 8.00781 39.1201 8.18359 39.6475 8.79883C40.3506 9.67773 40.9658 10.6445 41.5811 11.6113L42.0205 12.3145C42.5479 13.2812 42.9873 14.248 43.3389 15.3027ZM22.333 30.1562C26.2002 30.1562 29.3643 27.0801 29.3643 23.125C29.3643 19.2578 26.2002 16.0938 22.333 16.0938C18.3779 16.0938 15.3018 19.2578 15.3018 23.125C15.3018 27.0801 18.3779 30.1562 22.333 30.1562Z" fill="#183059"/>
</svg>
