<svg width="52" height="46" viewBox="0 0 52 46" fill="none" xmlns="http://www.w3.org/2000/svg">
<path d="M51.2246 23.125C51.2246 24.707 49.9062 25.9375 48.4121 25.9375H45.5996L45.6875 40C45.6875 40.2637 45.6875 40.5273 45.6875 40.7031V42.1094C45.6875 44.1309 44.1055 45.625 42.1719 45.625H40.7656C40.5898 45.625 40.502 45.625 40.4141 45.625C40.3262 45.625 40.1504 45.625 40.0625 45.625H35.1406C33.1191 45.625 31.625 44.1309 31.625 42.1094V34.375C31.625 32.8809 30.3066 31.5625 28.8125 31.5625H23.1875C21.6055 31.5625 20.375 32.8809 20.375 34.375V42.1094C20.375 44.1309 18.793 45.625 16.8594 45.625H11.9375C11.7617 45.625 11.6738 45.625 11.498 45.625C11.4102 45.625 11.3223 45.625 11.2344 45.625H9.82812C7.80664 45.625 6.3125 44.1309 6.3125 42.1094V32.2656C6.3125 32.2656 6.3125 32.1777 6.3125 32.0898V25.9375H3.5C1.91797 25.9375 0.6875 24.707 0.6875 23.125C0.6875 22.334 0.951172 21.6309 1.56641 21.0156L24.0664 1.41602C24.6816 0.800781 25.3848 0.625 26 0.625C26.6152 0.625 27.3184 0.888672 27.8457 1.32812L50.2578 21.0156C50.9609 21.6309 51.3125 22.334 51.2246 23.125Z" fill="#183059"/>
</svg>
