<svg width="35" height="46" viewBox="0 0 35 46" fill="none" xmlns="http://www.w3.org/2000/svg">
<path d="M29.9893 0.625C32.2744 0.625 34.208 2.55859 34.208 4.84375V41.4062C34.208 43.7793 32.2744 45.625 29.9893 45.625H21.5518V38.5938C21.5518 36.3086 19.6182 34.375 17.333 34.375C14.96 34.375 13.1143 36.3086 13.1143 38.5938V45.625H4.67676C2.30371 45.625 0.458008 43.7793 0.458008 41.4062V4.84375C0.458008 2.55859 2.30371 0.625 4.67676 0.625H29.9893ZM6.08301 24.5312C6.08301 25.3223 6.69824 25.9375 7.48926 25.9375H10.3018C11.0049 25.9375 11.708 25.3223 11.708 24.5312V21.7188C11.708 21.0156 11.0049 20.3125 10.3018 20.3125H7.48926C6.69824 20.3125 6.08301 21.0156 6.08301 21.7188V24.5312ZM15.9268 20.3125C15.1357 20.3125 14.5205 21.0156 14.5205 21.7188V24.5312C14.5205 25.3223 15.1357 25.9375 15.9268 25.9375H18.7393C19.4424 25.9375 20.1455 25.3223 20.1455 24.5312V21.7188C20.1455 21.0156 19.4424 20.3125 18.7393 20.3125H15.9268ZM22.958 24.5312C22.958 25.3223 23.5732 25.9375 24.3643 25.9375H27.1768C27.8799 25.9375 28.583 25.3223 28.583 24.5312V21.7188C28.583 21.0156 27.8799 20.3125 27.1768 20.3125H24.3643C23.5732 20.3125 22.958 21.0156 22.958 21.7188V24.5312ZM7.48926 9.0625C6.69824 9.0625 6.08301 9.76562 6.08301 10.4688V13.2812C6.08301 14.0723 6.69824 14.6875 7.48926 14.6875H10.3018C11.0049 14.6875 11.708 14.0723 11.708 13.2812V10.4688C11.708 9.76562 11.0049 9.0625 10.3018 9.0625H7.48926ZM14.5205 13.2812C14.5205 14.0723 15.1357 14.6875 15.9268 14.6875H18.7393C19.4424 14.6875 20.1455 14.0723 20.1455 13.2812V10.4688C20.1455 9.76562 19.4424 9.0625 18.7393 9.0625H15.9268C15.1357 9.0625 14.5205 9.76562 14.5205 10.4688V13.2812ZM24.3643 9.0625C23.5732 9.0625 22.958 9.76562 22.958 10.4688V13.2812C22.958 14.0723 23.5732 14.6875 24.3643 14.6875H27.1768C27.8799 14.6875 28.583 14.0723 28.583 13.2812V10.4688C28.583 9.76562 27.8799 9.0625 27.1768 9.0625H24.3643Z" fill="#183059"/>
</svg>
